<svg width="512" height="512" viewBox="0 0 512 512" fill="none" xmlns="http://www.w3.org/2000/svg">
  <defs>
    <linearGradient id="bsv-bg" x1="40" y1="34" x2="448" y2="474" gradientUnits="userSpaceOnUse">
      <stop offset="0" stop-color="#111722"/>
      <stop offset="1" stop-color="#070B12"/>
    </linearGradient>
    <linearGradient id="bsv-ring" x1="106" y1="88" x2="412" y2="426" gradientUnits="userSpaceOnUse">
      <stop offset="0" stop-color="#FFD27D"/>
      <stop offset="0.52" stop-color="#FF9F1A"/>
      <stop offset="1" stop-color="#8F5200"/>
    </linearGradient>
  </defs>

  <rect x="22" y="22" width="468" height="468" rx="104" fill="#090E16" stroke="#2A3443" stroke-width="8"/>
  <circle cx="256" cy="256" r="186" fill="url(#bsv-bg)"/>
  <circle cx="256" cy="256" r="186" stroke="url(#bsv-ring)" stroke-width="10"/>
  <circle cx="256" cy="256" r="152" stroke="#FF9F1A" stroke-opacity="0.24" stroke-width="4"/>

  <path d="M298.219 146.513C279.883 149.012 262.019 161.126 251.839 179.104C239.439 201.018 239.78 228.096 254.889 250.842C263.553 263.93 278.461 274.677 297.822 277.85C315.229 280.731 330.994 275.55 343.887 265.152C337.414 291.426 316.93 313.2 289.365 320.864C255.533 330.281 220.854 316.433 203.662 289.223C214.54 329.266 250.062 357.529 294.243 357.529C342.047 357.529 381.66 322.684 389.197 276.822C394.836 242.414 379.541 211.998 352.353 192.771C335.546 180.789 317.961 145.612 298.219 146.513Z" fill="#EEF3FF" fill-opacity="0.97"/>
  <path d="M327.492 156.007C346.88 152.834 364.493 157.311 379.468 167.993C395.457 179.446 406.832 196.197 411.414 214.801C394.972 201.833 374.842 194.432 351.896 195.274C339.849 195.75 328.154 198.048 318.016 203.303C317.711 185.655 323.095 170.877 327.492 156.007Z" fill="#FF9F1A" fill-opacity="0.34"/>
  <path d="M183.258 358.17C200.97 382.544 230.09 398.216 260.487 398.216C280.362 398.216 298.31 392.283 313.246 382.111C299.893 406.612 275.778 422.981 247.222 425.008C218.153 427.075 190.422 415.527 170.72 393.778C157.807 379.465 148.599 361.986 146.701 343.013C159.135 349.846 170.114 355.429 183.258 358.17Z" fill="#FFB13D" fill-opacity="0.96"/>
  <circle cx="345.489" cy="177.771" r="8.251" fill="#FFB13D"/>
</svg>
